<svg viewBox="0 0 100 100" fill="none" xmlns="http://www.w3.org/2000/svg">
  <!-- Gradient definitions -->
  <defs>
    <linearGradient id="bgGradient" x1="0%" y1="0%" x2="100%" y2="100%">
      <stop offset="0%" style="stop-color:#059669;stop-opacity:1" />
      <stop offset="100%" style="stop-color:#065F46;stop-opacity:1" />
    </linearGradient>
    <linearGradient id="accentGradient" x1="0%" y1="0%" x2="100%" y2="100%">
      <stop offset="0%" style="stop-color:#10B981;stop-opacity:1" />
      <stop offset="100%" style="stop-color:#059669;stop-opacity:1" />
    </linearGradient>
  </defs>
  
  <!-- Background with subtle gradient -->
  <rect width="100" height="100" rx="20" fill="url(#bgGradient)"/>
  
  <!-- Modern geometric sales chart/growth symbol -->
  <g transform="translate(15, 25)">
    <!-- Sales chart bars representing growth -->
    <rect x="5" y="35" width="8" height="15" rx="2" fill="white" opacity="0.8"/>
    <rect x="18" y="25" width="8" height="25" rx="2" fill="white"/>
    <rect x="31" y="15" width="8" height="35" rx="2" fill="url(#accentGradient)"/>
    <rect x="44" y="5" width="8" height="45" rx="2" fill="white"/>
    <rect x="57" y="10" width="8" height="40" rx="2" fill="white" opacity="0.9"/>
    
    <!-- AI spark/hint element -->
    <g transform="translate(45, 8)">
      <circle cx="0" cy="0" r="3" fill="#FDE047"/>
      <path d="M-6 0 L6 0 M0 -6 L0 6 M-4 -4 L4 4 M-4 4 L4 -4" stroke="#FDE047" stroke-width="1.5" stroke-linecap="round"/>
    </g>
  </g>
  
  <!-- Sleek "S" icon integrated with the design -->
  <g transform="translate(65, 60)">
    <path d="M5 5 Q15 5 15 15 Q15 20 10 22.5 Q15 25 15 30 Q15 40 5 40" 
          stroke="white" stroke-width="3.5" stroke-linecap="round" fill="none"/>
  </g>
  
  <!-- Subtle corner accents -->
  <circle cx="20" cy="20" r="2" fill="white" opacity="0.3"/>
  <circle cx="80" cy="80" r="2" fill="white" opacity="0.3"/>
</svg>